<?xml version="1.0" standalone="no"?>
<!DOCTYPE svg PUBLIC "-//W3C//DTD SVG 20010904//EN"
 "http://www.w3.org/TR/2001/REC-SVG-20010904/DTD/svg10.dtd">
<svg version="1.0" xmlns="http://www.w3.org/2000/svg"
 width="182.000000pt" height="107.000000pt" viewBox="0 0 182.000000 107.000000"
 preserveAspectRatio="xMidYMid meet">

<g transform="translate(0.000000,107.000000) scale(0.100000,-0.100000)"
fill="#000000" stroke="none">
<path d="M499 815 c-4 -5 -9 -27 -13 -47 -4 -21 -14 -44 -22 -53 -9 -9 -11
-15 -4 -15 14 0 52 85 48 108 -2 9 -6 13 -9 7z"/>
<path d="M388 683 c6 -2 18 -2 25 0 6 3 1 5 -13 5 -14 0 -19 -2 -12 -5z"/>
<path d="M450 686 c0 -2 7 -7 16 -10 8 -3 12 -2 9 4 -6 10 -25 14 -25 6z"/>
<path d="M310 671 c0 -5 9 -7 20 -4 11 3 20 7 20 9 0 2 -9 4 -20 4 -11 0 -20
-4 -20 -9z"/>
<path d="M420 660 c-9 -6 -10 -10 -3 -10 6 0 15 5 18 10 8 12 4 12 -15 0z"/>
<path d="M1060 651 c0 -5 5 -13 10 -16 6 -3 10 -2 10 4 0 5 -4 13 -10 16 -5 3
-10 2 -10 -4z"/>
<path d="M1690 656 c0 -2 7 -7 16 -10 8 -3 12 -2 9 4 -6 10 -25 14 -25 6z"/>
<path d="M186 629 c-15 -15 -17 -22 -8 -31 15 -15 15 -51 0 -66 -9 -9 -9 -12
0 -12 7 0 12 5 12 10 0 6 4 10 8 10 5 0 8 -10 8 -21 -2 -44 27 -45 105 -2 74
39 87 55 69 83 -8 13 -19 10 -77 -20 -87 -44 -83 -43 -83 -33 0 5 11 13 25 19
l25 9 -33 36 c-31 36 -32 36 -51 18z"/>
<path d="M323 637 c3 -9 -1 -18 -9 -21 -14 -6 -20 -26 -6 -26 4 0 17 8 30 18
l22 17 -21 14 c-19 11 -21 11 -16 -2z"/>
<path d="M525 640 c-3 -5 -4 -14 -1 -19 12 -19 -7 -43 -29 -39 -12 3 -31 -2
-41 -9 -18 -13 -17 -14 8 -8 16 4 36 4 45 0 17 -6 17 -7 -1 -21 -11 -8 -16
-14 -10 -14 5 0 17 6 26 14 13 10 15 15 6 24 -9 9 -9 12 0 12 7 0 11 14 10 35
-1 37 -3 41 -13 25z"/>
<path d="M770 620 c-6 -11 -8 -20 -6 -20 3 0 10 9 16 20 6 11 8 20 6 20 -3 0
-10 -9 -16 -20z"/>
<path d="M886 617 c3 -10 9 -15 12 -12 3 3 0 11 -7 18 -10 9 -11 8 -5 -6z"/>
<path d="M1715 621 c-3 -5 -2 -12 3 -15 5 -3 9 1 9 9 0 17 -3 19 -12 6z"/>
<path d="M85 556 c-34 -29 -38 -36 -26 -48 9 -8 12 -9 7 -1 -4 7 1 19 11 27
10 8 29 24 43 35 14 11 21 20 15 21 -5 0 -28 -16 -50 -34z"/>
<path d="M1560 576 c0 -8 4 -17 9 -20 5 -4 7 3 4 14 -6 23 -13 26 -13 6z"/>
<path d="M1216 547 c3 -10 9 -15 12 -12 3 3 0 11 -7 18 -10 9 -11 8 -5 -6z"/>
<path d="M526 523 c-6 -14 -5 -15 5 -6 7 7 10 15 7 18 -3 3 -9 -2 -12 -12z"/>
<path d="M305 485 c-51 -25 -62 -33 -40 -31 17 2 30 5 30 6 0 1 9 3 19 5 11 2
31 15 45 29 31 32 32 32 -54 -9z"/>
<path d="M466 504 c-23 -23 -20 -30 4 -9 11 10 20 20 20 22 0 7 -9 2 -24 -13z"/>
<path d="M360 435 c-7 -8 -16 -12 -21 -9 -5 3 -9 1 -9 -5 0 -5 -15 -13 -32
-16 -18 -4 -37 -10 -43 -13 -5 -4 -17 -8 -26 -9 -8 -1 -26 -7 -40 -12 l-24
-10 26 0 c14 -1 29 2 33 6 3 4 14 8 22 9 35 5 123 47 128 60 7 18 2 18 -14 -1z"/>
<path d="M166 424 c-27 -27 -37 -52 -24 -60 7 -4 8 -3 4 4 -4 7 7 25 26 42 18
17 27 30 21 30 -6 0 -19 -7 -27 -16z"/>
<path d="M880 436 c0 -2 8 -10 18 -17 15 -13 16 -12 3 4 -13 16 -21 21 -21 13z"/>
<path d="M474 409 c-10 -12 -18 -23 -16 -25 2 -2 -2 -29 -9 -59 -9 -39 -9 -63
-2 -87 11 -32 11 -31 12 23 1 31 10 81 20 112 11 32 19 57 17 57 -2 0 -11 -9
-22 -21z"/>
<path d="M1466 417 c3 -10 9 -15 12 -12 3 3 0 11 -7 18 -10 9 -11 8 -5 -6z"/>
<path d="M905 390 c3 -5 8 -10 11 -10 2 0 4 5 4 10 0 6 -5 10 -11 10 -5 0 -7
-4 -4 -10z"/>
<path d="M1400 391 c0 -6 4 -13 10 -16 6 -3 7 1 4 9 -7 18 -14 21 -14 7z"/>
<path d="M1670 386 c0 -2 8 -10 18 -17 15 -13 16 -12 3 4 -13 16 -21 21 -21
13z"/>
<path d="M1715 361 c-3 -5 -2 -12 3 -15 5 -3 9 1 9 9 0 17 -3 19 -12 6z"/>
<path d="M1406 347 c3 -10 9 -15 12 -12 3 3 0 11 -7 18 -10 9 -11 8 -5 -6z"/>
<path d="M1592 334 c10 -10 20 -16 22 -13 3 3 -5 11 -17 18 -21 13 -21 12 -5
-5z"/>
<path d="M1735 329 c-4 -6 -5 -12 -2 -15 2 -3 7 2 10 11 7 17 1 20 -8 4z"/>
<path d="M710 306 c0 -2 7 -7 16 -10 8 -3 12 -2 9 4 -6 10 -25 14 -25 6z"/>
</g>
</svg>
